<svg width="24" height="24" viewBox="0 0 24 24" fill="none" xmlns="http://www.w3.org/2000/svg" data-reactroot="">
<path fill="#221b38" d="M16.4896 3.06679C15.1447 2.38885 13.6111 2 12 2C8.32662 2 5.7302 3.93083 3.51379 6.65952C3.16559 7.08821 3.23083 7.718 3.65952 8.06621C4.08821 8.41441 4.718 8.34917 5.0662 7.92048C7.0898 5.42917 9.17338 4 12 4C13.2886 4 14.5149 4.31105 15.5898 4.85295L15.5904 4.85321C18.2069 6.1704 20 8.87324 20 12C20 16.4177 16.4177 20 12 20C8.87324 20 6.1704 18.2069 4.85321 15.5904C4.60488 15.0971 4.00366 14.8985 3.51036 15.1468C3.01705 15.3951 2.81846 15.9963 3.06679 16.4896C4.7096 19.7531 8.08676 22 12 22C17.5223 22 22 17.5223 22 12C22 8.08676 19.7531 4.7096 16.4896 3.06679Z" clip-rule="evenodd" fill-rule="evenodd" undefined="1"></path>
<path fill="#221b38" d="M1.99997 9.99991V3.58569L8.41418 9.99991H1.99997Z" clip-rule="evenodd" fill-rule="evenodd" undefined="1"></path>
</svg>
